<svg version="1.1" id="Layer_1" xmlns="http://www.w3.org/2000/svg" xmlns:xlink="http://www.w3.org/1999/xlink" x="0px" y="0px"
	 width="512" height="512" viewBox="350 110 340 340" enable-background="new 350 110 340 340" xml:space="preserve">
<path fill="#22c55e" opacity="1.000000" stroke="none" 
	d="
M376.067566,345.000000 
	C376.060486,295.028870 376.045471,245.557724 376.046265,196.086594 
	C376.046570,177.381332 384.608856,163.801544 400.167511,157.750763 
	C416.187927,151.520432 434.131500,156.501251 444.823853,170.628952 
	C463.417297,195.196381 481.776764,219.940948 500.235138,244.610611 
	C502.529480,247.676987 504.755859,250.798111 507.150024,253.784622 
	C508.890076,255.955170 508.980042,257.662506 506.946228,259.840912 
	C496.647919,270.871735 484.974884,280.156036 472.293121,288.302643 
	C468.723053,290.596039 467.030518,289.295837 465.004883,286.569977 
	C455.766327,274.137848 446.458832,261.756866 437.152405,249.375336 
	C435.985443,247.822800 435.108948,245.932220 432.770844,245.175659 
	C430.860870,247.439240 431.383209,250.175797 431.380890,252.727249 
	C431.342865,294.203003 431.381195,335.678833 431.317444,377.154510 
	C431.293762,392.564606 420.133606,404.461151 405.188507,405.279236 
	C390.808563,406.066376 378.532471,396.005920 376.686157,381.436310 
	C375.174591,369.508301 376.330933,357.480072 376.067566,345.000000 
z"/>
<path fill="#22c55e" opacity="1.000000" stroke="none" 
	d="
M490.994080,281.990326 
	C509.612366,267.477478 523.284363,248.911011 537.693542,231.025345 
	C545.006592,221.947922 552.291748,212.846085 559.447815,203.644974 
	C563.087219,198.965393 562.784790,198.013885 557.742737,194.643188 
	C554.973755,192.792084 552.151306,191.015625 549.448792,189.072327 
	C547.860962,187.930634 545.734802,186.759842 546.104370,184.496994 
	C546.434509,182.475754 548.683044,182.133224 550.377075,181.493973 
	C568.747498,174.561569 587.103882,167.591446 605.504333,160.739685 
	C610.483582,158.885544 615.262451,156.410065 620.573792,155.517731 
	C624.979492,154.777542 627.136902,156.481430 626.773071,160.738327 
	C625.102539,180.281631 623.319519,199.815292 621.597107,219.354187 
	C621.144470,224.488419 620.759338,229.628632 620.351746,234.766785 
	C620.069641,238.323532 618.259277,238.651352 615.704773,236.828598 
	C611.639954,233.928162 607.578674,231.009323 603.683289,227.889328 
	C600.746826,225.537354 598.921265,225.689529 596.437744,228.885864 
	C583.157104,245.977951 569.586975,262.842499 555.585999,279.357788 
	C539.869629,297.896515 521.144165,312.584534 499.611755,323.796356 
	C492.370422,327.566895 485.293732,331.654877 479.371002,337.415985 
	C459.115570,357.118561 464.581665,389.123810 490.216797,401.090179 
	C491.471710,401.675995 493.304749,401.491150 493.853455,403.739258 
	C489.731079,405.223938 485.693848,403.885254 481.812866,403.158173 
	C454.949860,398.125427 435.461853,370.136780 439.119476,342.995514 
	C441.890656,322.432190 453.165192,307.894135 469.709991,296.620453 
	C476.726959,291.839050 483.716644,287.017609 490.994080,281.990326 
z"/>
<path fill="#22c55e" opacity="1.000000" stroke="none" 
	d="
M650.157349,277.000000 
	C650.147461,310.141205 650.190125,342.782532 650.103149,375.423523 
	C650.063843,390.182098 642.404053,400.651245 629.335388,404.282654 
	C611.982239,409.104614 594.783752,396.105133 594.717346,377.813263 
	C594.581909,340.509460 594.657166,303.204895 594.648193,265.900665 
	C594.646423,258.739655 594.623840,251.578354 594.687439,244.417877 
	C594.700439,242.949127 594.737427,241.344421 595.306885,240.039581 
	C598.292175,233.199310 600.682617,232.619843 606.636902,236.950333 
	C610.540710,239.789566 614.387695,242.734299 618.477905,245.282120 
	C622.453064,247.758270 625.255371,246.238632 625.674438,241.608353 
	C627.712036,219.095825 629.676331,196.576645 631.721863,174.064835 
	C632.049622,170.457428 632.657227,166.875443 633.114014,163.443146 
	C635.726807,162.544418 636.865967,164.264877 638.164246,165.428864 
	C646.837158,173.204514 650.030212,183.375275 650.101807,194.564087 
	C650.276611,221.875046 650.157776,249.187912 650.157349,277.000000 
z"/>
<path fill="#22c55e" opacity="1.000000" stroke="none" 
	d="
M483.296265,353.240967 
	C484.794617,350.221893 485.197937,347.614838 483.380829,344.895752 
	C480.152039,340.064270 484.974579,338.218018 487.100067,335.443420 
	C489.115295,332.812714 491.317291,332.462708 494.396332,334.368774 
	C498.787720,337.087219 503.705963,335.283234 504.996613,330.253510 
	C506.230377,325.445618 509.364288,325.637726 512.979492,325.656372 
	C516.594910,325.675049 519.727722,325.511292 520.927002,330.329834 
	C522.212097,335.493164 526.888489,336.846344 533.146667,334.513794 
	C534.674316,336.420868 534.391174,338.427032 533.390747,340.455383 
	C530.410706,346.497009 523.885681,349.222107 517.575378,347.087677 
	C509.720459,344.430725 500.840363,348.597656 496.903168,356.787994 
	C493.135406,364.625854 496.026093,374.362671 503.531860,379.115448 
	C511.098572,383.906891 521.537048,382.487946 526.809387,375.042145 
	C530.950989,369.193268 535.530396,363.759155 539.909302,358.133240 
	C542.232666,355.148285 544.389526,355.704834 547.286682,356.431305 
	C550.343567,357.197906 551.150208,359.025238 551.294495,361.841003 
	C551.554077,366.909576 551.664917,371.399139 544.942749,372.734070 
	C541.839233,373.350403 540.457031,379.188843 542.665283,382.063538 
	C546.659302,387.262878 541.957275,389.384247 539.609375,392.435303 
	C537.242737,395.510712 534.667236,395.596283 531.348022,393.694855 
	C527.292542,391.371613 521.727783,393.604218 520.775940,398.175537 
	C519.827332,402.731476 517.288940,403.469025 513.298889,403.402863 
	C509.376038,403.337769 506.232330,403.298798 505.109467,398.342682 
	C504.014801,393.511017 498.403503,391.303162 494.207001,393.806976 
	C490.988403,395.727325 488.659912,395.355560 486.459106,392.490173 
	C484.277893,389.650269 480.097504,387.800995 482.938263,382.857056 
	C485.909882,377.685394 484.335693,373.502472 478.614197,371.746979 
	C473.682770,370.233887 474.846832,366.591827 474.697845,363.270050 
	C474.559021,360.174530 474.507812,357.165375 478.708771,356.486786 
	C480.490265,356.199005 482.266144,355.471893 483.296265,353.240967 
z"/>
<path fill="#22c55e" opacity="1.000000" stroke="none" 
	d="
M502.150726,360.737061 
	C505.675110,353.592499 510.173096,351.512024 517.383362,353.844940 
	C519.722290,354.601715 521.504578,354.205872 523.527222,353.211487 
	C527.942139,351.041077 531.649292,347.959808 534.947266,344.406921 
	C541.722351,337.108246 548.377014,329.697784 554.780701,322.015930 
	C547.531921,324.814270 543.168579,331.101105 536.930420,337.462311 
	C536.617493,328.605743 538.169373,321.723053 542.051697,315.435394 
	C546.457947,308.299469 553.041321,304.029816 560.974182,301.572021 
	C568.621826,299.202606 576.579651,298.923187 584.298706,297.204681 
	C587.629211,314.423035 579.272522,342.290222 552.926086,344.261078 
	C547.561035,344.662384 543.810974,346.314575 540.744873,351.186676 
	C535.666138,359.257172 528.450256,365.639801 521.247925,371.830841 
	C517.255066,375.263031 512.392822,376.755707 507.342316,373.960327 
	C502.296875,371.167755 501.010132,366.555756 502.150726,360.737061 
z"/>
</svg>
